<svg width="84" height="15" viewBox="0 0 84 15" fill="none" xmlns="http://www.w3.org/2000/svg">
<path d="M10.418 4.87891L14.3281 5.45312C14.6562 5.50781 14.9297 5.72656 15.0391 6.05469C15.1484 6.35547 15.0664 6.71094 14.8203 6.92969L11.9766 9.74609L12.6602 13.7383C12.7148 14.0664 12.5781 14.3945 12.3047 14.5859C12.0312 14.8047 11.6758 14.8047 11.375 14.668L7.875 12.7812L4.34766 14.668C4.07422 14.8047 3.69141 14.8047 3.44531 14.5859C3.17188 14.3945 3.03516 14.0664 3.08984 13.7383L3.74609 9.74609L0.902344 6.92969C0.65625 6.71094 0.574219 6.35547 0.683594 6.05469C0.792969 5.72656 1.06641 5.50781 1.39453 5.45312L5.33203 4.87891L7.08203 1.24219C7.21875 0.941406 7.51953 0.75 7.875 0.75C8.20312 0.75 8.50391 0.941406 8.64062 1.24219L10.418 4.87891Z" fill="#CB3A1A"/>
<path d="M27.418 4.87891L31.3281 5.45312C31.6562 5.50781 31.9297 5.72656 32.0391 6.05469C32.1484 6.35547 32.0664 6.71094 31.8203 6.92969L28.9766 9.74609L29.6602 13.7383C29.7148 14.0664 29.5781 14.3945 29.3047 14.5859C29.0312 14.8047 28.6758 14.8047 28.375 14.668L24.875 12.7812L21.3477 14.668C21.0742 14.8047 20.6914 14.8047 20.4453 14.5859C20.1719 14.3945 20.0352 14.0664 20.0898 13.7383L20.7461 9.74609L17.9023 6.92969C17.6562 6.71094 17.5742 6.35547 17.6836 6.05469C17.793 5.72656 18.0664 5.50781 18.3945 5.45312L22.332 4.87891L24.082 1.24219C24.2188 0.941406 24.5195 0.75 24.875 0.75C25.2031 0.75 25.5039 0.941406 25.6406 1.24219L27.418 4.87891Z" fill="#CB3A1A"/>
<path d="M44.418 4.87891L48.3281 5.45312C48.6562 5.50781 48.9297 5.72656 49.0391 6.05469C49.1484 6.35547 49.0664 6.71094 48.8203 6.92969L45.9766 9.74609L46.6602 13.7383C46.7148 14.0664 46.5781 14.3945 46.3047 14.5859C46.0312 14.8047 45.6758 14.8047 45.375 14.668L41.875 12.7812L38.3477 14.668C38.0742 14.8047 37.6914 14.8047 37.4453 14.5859C37.1719 14.3945 37.0352 14.0664 37.0898 13.7383L37.7461 9.74609L34.9023 6.92969C34.6562 6.71094 34.5742 6.35547 34.6836 6.05469C34.793 5.72656 35.0664 5.50781 35.3945 5.45312L39.332 4.87891L41.082 1.24219C41.2188 0.941406 41.5195 0.75 41.875 0.75C42.2031 0.75 42.5039 0.941406 42.6406 1.24219L44.418 4.87891Z" fill="#CB3A1A"/>
<path d="M61.418 4.87891L65.3281 5.45312C65.6562 5.50781 65.9297 5.72656 66.0391 6.05469C66.1484 6.35547 66.0664 6.71094 65.8203 6.92969L62.9766 9.74609L63.6602 13.7383C63.7148 14.0664 63.5781 14.3945 63.3047 14.5859C63.0312 14.8047 62.6758 14.8047 62.375 14.668L58.875 12.7812L55.3477 14.668C55.0742 14.8047 54.6914 14.8047 54.4453 14.5859C54.1719 14.3945 54.0352 14.0664 54.0898 13.7383L54.7461 9.74609L51.9023 6.92969C51.6562 6.71094 51.5742 6.35547 51.6836 6.05469C51.793 5.72656 52.0664 5.50781 52.3945 5.45312L56.332 4.87891L58.082 1.24219C58.2188 0.941406 58.5195 0.75 58.875 0.75C59.2031 0.75 59.5039 0.941406 59.6406 1.24219L61.418 4.87891Z" fill="#CB3A1A"/>
<path d="M78.418 4.87891L82.3281 5.45312C82.6562 5.50781 82.9297 5.72656 83.0391 6.05469C83.1484 6.35547 83.0664 6.71094 82.8203 6.92969L79.9766 9.74609L80.6602 13.7383C80.7148 14.0664 80.5781 14.3945 80.3047 14.5859C80.0312 14.8047 79.6758 14.8047 79.375 14.668L75.875 12.7812L72.3477 14.668C72.0742 14.8047 71.6914 14.8047 71.4453 14.5859C71.1719 14.3945 71.0352 14.0664 71.0898 13.7383L71.7461 9.74609L68.9023 6.92969C68.6562 6.71094 68.5742 6.35547 68.6836 6.05469C68.793 5.72656 69.0664 5.50781 69.3945 5.45312L73.332 4.87891L75.082 1.24219C75.2188 0.941406 75.5195 0.75 75.875 0.75C76.2031 0.75 76.5039 0.941406 76.6406 1.24219L78.418 4.87891Z" fill="#CB3A1A"/>
</svg>
